<?xml version="1.0" encoding="UTF-8"?>
<svg version="1.1" xmlns="http://www.w3.org/2000/svg" width="1603" height="418">
<path d="M0 0 C528.99 0 1057.98 0 1603 0 C1603 137.94 1603 275.88 1603 418 C1074.01 418 545.02 418 0 418 C0 280.06 0 142.12 0 0 Z " fill="#005399" transform="translate(0,0)"/>
<path d="M0 0 C2.97878872 0.02377736 5.95668578 0.02050426 8.93554688 0.01391602 C24.93601339 0.03486402 39.82937801 1.44325431 55.34179688 5.64868164 C56.51331299 5.96135986 57.6848291 6.27403809 58.8918457 6.59619141 C89.39808204 14.8643558 116.87329156 30.39344546 139.71679688 52.33618164 C140.20180664 52.79009277 140.68681641 53.24400391 141.18652344 53.71166992 C163.06735016 74.23770993 177.92175939 99.77347598 187.96679688 127.89868164 C188.3087207 128.84469238 188.65064453 129.79070312 189.00292969 130.76538086 C191.06598918 136.71493178 192.40993824 142.51421372 193.31347656 148.74707031 C193.70383096 151.55333731 193.70383096 151.55333731 194.71679688 155.08618164 C197.8638985 167.17068089 198.06130613 179.80548752 197.96679688 192.21118164 C197.96336273 192.95519226 197.95992859 193.69920288 197.95639038 194.46575928 C197.8966905 205.52431027 197.66592622 216.42760903 195.71679688 227.33618164 C195.55550293 228.24980469 195.39420898 229.16342773 195.22802734 230.10473633 C187.03546525 275.1601672 164.52528046 318.08178227 127.71679688 346.33618164 C126.7809375 347.1109082 125.84507812 347.88563477 124.88085938 348.68383789 C110.19836637 360.59213235 93.57199361 369.05488244 75.88085938 375.54150391 C74.47044325 376.05943086 73.06390291 376.58807645 71.66210938 377.12890625 C31.38212341 392.6625163 -16.15851692 392.53461797 -57.28320312 380.33618164 C-58.09660156 380.10286133 -58.91 379.86954102 -59.74804688 379.62915039 C-88.69485671 370.67814771 -113.43279283 353.85951899 -135.28320312 333.33618164 C-135.96898437 332.71614258 -136.65476562 332.09610352 -137.36132812 331.45727539 C-152.91356505 316.8525487 -164.23418043 297.44656062 -173.28320312 278.33618164 C-173.6828125 277.50473633 -174.08242187 276.67329102 -174.49414062 275.81665039 C-179.09556283 265.89598412 -182.36032381 255.63482675 -184.90820312 245.02368164 C-185.19908813 243.81760254 -185.19908813 243.81760254 -185.49584961 242.5871582 C-186.13104535 239.84405961 -186.71151213 237.09323238 -187.28320312 234.33618164 C-187.54866943 233.12140137 -187.81413574 231.90662109 -188.08764648 230.6550293 C-190.325778 219.80990318 -190.71715273 209.24124613 -190.61938477 198.1887207 C-190.59572776 195.33914856 -190.59886102 192.4905154 -190.60546875 189.64086914 C-190.57199341 167.90761902 -187.0942417 147.95002999 -180.28320312 127.33618164 C-179.90292969 126.17086914 -179.52265625 125.00555664 -179.13085938 123.80493164 C-174.04904877 108.88459881 -167.23016852 95.28407875 -158.28320312 82.33618164 C-157.27773437 80.87051758 -157.27773437 80.87051758 -156.25195312 79.37524414 C-152.31647399 73.79998203 -148.05885302 68.67802608 -143.42773438 63.66821289 C-141.5264412 61.60068644 -139.71391575 59.4866604 -137.90820312 57.33618164 C-119.51450886 36.38664376 -93.41361558 20.40083394 -67.22070312 11.33618164 C-66.50374268 11.08763428 -65.78678223 10.83908691 -65.0480957 10.58300781 C-43.52566586 3.25001017 -22.76840734 -0.19374967 0 0 Z " fill="#03559A" transform="translate(1375.283203125,13.663818359375)"/>
<path d="M0 0 C2.97878872 0.02377736 5.95668578 0.02050426 8.93554688 0.01391602 C24.93601339 0.03486402 39.82937801 1.44325431 55.34179688 5.64868164 C56.51331299 5.96135986 57.6848291 6.27403809 58.8918457 6.59619141 C89.39808204 14.8643558 116.87329156 30.39344546 139.71679688 52.33618164 C140.20180664 52.79009277 140.68681641 53.24400391 141.18652344 53.71166992 C163.06735016 74.23770993 177.92175939 99.77347598 187.96679688 127.89868164 C188.3087207 128.84469238 188.65064453 129.79070312 189.00292969 130.76538086 C191.06598918 136.71493178 192.40993824 142.51421372 193.31347656 148.74707031 C193.70383096 151.55333731 193.70383096 151.55333731 194.71679688 155.08618164 C197.8638985 167.17068089 198.06130613 179.80548752 197.96679688 192.21118164 C197.96336273 192.95519226 197.95992859 193.69920288 197.95639038 194.46575928 C197.8966905 205.52431027 197.66592622 216.42760903 195.71679688 227.33618164 C195.55550293 228.24980469 195.39420898 229.16342773 195.22802734 230.10473633 C187.03546525 275.1601672 164.52528046 318.08178227 127.71679688 346.33618164 C126.7809375 347.1109082 125.84507812 347.88563477 124.88085938 348.68383789 C110.19836637 360.59213235 93.57199361 369.05488244 75.88085938 375.54150391 C74.47044325 376.05943086 73.06390291 376.58807645 71.66210938 377.12890625 C31.38212341 392.6625163 -16.15851692 392.53461797 -57.28320312 380.33618164 C-58.09660156 380.10286133 -58.91 379.86954102 -59.74804688 379.62915039 C-88.69485671 370.67814771 -113.43279283 353.85951899 -135.28320312 333.33618164 C-135.96898437 332.71614258 -136.65476562 332.09610352 -137.36132812 331.45727539 C-152.91356505 316.8525487 -164.23418043 297.44656062 -173.28320312 278.33618164 C-173.6828125 277.50473633 -174.08242187 276.67329102 -174.49414062 275.81665039 C-179.09556283 265.89598412 -182.36032381 255.63482675 -184.90820312 245.02368164 C-185.19908813 243.81760254 -185.19908813 243.81760254 -185.49584961 242.5871582 C-186.13104535 239.84405961 -186.71151213 237.09323238 -187.28320312 234.33618164 C-187.54866943 233.12140137 -187.81413574 231.90662109 -188.08764648 230.6550293 C-190.325778 219.80990318 -190.71715273 209.24124613 -190.61938477 198.1887207 C-190.59572776 195.33914856 -190.59886102 192.4905154 -190.60546875 189.64086914 C-190.57199341 167.90761902 -187.0942417 147.95002999 -180.28320312 127.33618164 C-179.90292969 126.17086914 -179.52265625 125.00555664 -179.13085938 123.80493164 C-174.04904877 108.88459881 -167.23016852 95.28407875 -158.28320312 82.33618164 C-157.27773437 80.87051758 -157.27773437 80.87051758 -156.25195312 79.37524414 C-152.31647399 73.79998203 -148.05885302 68.67802608 -143.42773438 63.66821289 C-141.5264412 61.60068644 -139.71391575 59.4866604 -137.90820312 57.33618164 C-119.51450886 36.38664376 -93.41361558 20.40083394 -67.22070312 11.33618164 C-66.50374268 11.08763428 -65.78678223 10.83908691 -65.0480957 10.58300781 C-43.52566586 3.25001017 -22.76840734 -0.19374967 0 0 Z M-24.34463501 32.87615967 C-26.82882586 33.46565785 -29.30772025 33.70258077 -31.84570312 33.96118164 C-61.85891404 38.54896534 -88.73804676 54.55524637 -110.28320312 75.33618164 C-111.19714844 76.17536133 -112.11109375 77.01454102 -113.05273438 77.87915039 C-135.49744465 99.10369044 -150.93078698 130.63934509 -154.95898438 161.21899414 C-155.28320312 163.33618164 -155.28320312 163.33618164 -156.28320312 165.33618164 C-157.66056068 174.19062308 -157.52665234 183.14646897 -157.53320312 192.08618164 C-157.53387787 192.91154419 -157.53455261 193.73690674 -157.5352478 194.58728027 C-157.51042147 213.71237439 -155.35582182 231.15675985 -149.28320312 249.33618164 C-148.99960938 250.24625977 -148.71601562 251.15633789 -148.42382812 252.09399414 C-143.41845583 267.15733151 -135.97272877 281.78223418 -126.28320312 294.33618164 C-125.63867188 295.18954102 -124.99414062 296.04290039 -124.33007812 296.92211914 C-116.02847721 307.61971057 -107.10344953 317.16546771 -96.28320312 325.33618164 C-95.11917969 326.22370117 -95.11917969 326.22370117 -93.93164062 327.12915039 C-83.55580731 334.71149012 -72.26707184 340.9554242 -60.16992188 345.28540039 C-57.58572129 346.22606339 -55.14243543 347.28721699 -52.65820312 348.46118164 C-36.11381151 355.89719881 -17.69490638 356.83839107 0.14599609 356.72729492 C3.21301733 356.71120147 6.27872134 356.72723965 9.34570312 356.74633789 C26.09770439 356.76691899 41.01825839 354.65903137 56.96679688 349.33618164 C58.57748047 348.8218457 58.57748047 348.8218457 60.22070312 348.29711914 C65.1186607 346.69903086 69.32447314 345.05268298 73.71679688 342.33618164 C76.04860077 341.33262047 78.38202673 340.33282242 80.71679688 339.33618164 C94.10513827 332.382425 105.74365033 323.68887564 116.71679688 313.33618164 C117.50441406 312.62461914 118.29203125 311.91305664 119.10351562 311.17993164 C131.0139186 299.9791662 140.20927227 285.7816945 147.71679688 271.33618164 C148.24660156 270.32942383 148.77640625 269.32266602 149.32226562 268.28540039 C154.06191244 258.69644913 157.00437692 248.64446751 159.71679688 238.33618164 C160.08732178 236.98411621 160.08732178 236.98411621 160.46533203 235.60473633 C169.27569766 202.53824195 167.02069677 165.16822247 154.71679688 133.33618164 C154.44464355 132.61350098 154.17249023 131.89082031 153.89208984 131.14624023 C139.98110018 94.43781339 114.06345336 66.89867711 79.71679688 48.33618164 C78.81316406 47.81411133 77.90953125 47.29204102 76.97851562 46.75415039 C66.89495185 41.22351266 55.77140566 38.2780597 44.71679688 35.33618164 C43.87487793 35.10592285 43.03295898 34.87566406 42.16552734 34.63842773 C28.86801007 31.15517003 15.56287913 30.97452624 1.90429688 30.96118164 C1.02291046 30.95909698 0.14152405 30.95701233 -0.76657104 30.9548645 C-3.3206265 30.95554876 -5.87382525 30.97386919 -8.42773438 31.00024414 C-9.18641815 31.00266617 -9.94510193 31.0050882 -10.72677612 31.00758362 C-15.44541367 31.08879801 -19.76231691 31.74318754 -24.34463501 32.87615967 Z " fill="#FBFCFD" transform="translate(1375.283203125,13.663818359375)"/>
<path d="M0 0 C12.73528347 -0.06790016 25.47044581 -0.12288795 38.20586967 -0.15543652 C44.12006251 -0.17106177 50.03412459 -0.19224273 55.94824219 -0.22631836 C61.66057742 -0.25902369 67.37278722 -0.27687662 73.08520889 -0.28463173 C75.25959369 -0.29015519 77.43397198 -0.30094102 79.60830307 -0.31719017 C82.66463563 -0.33911283 85.72045636 -0.34196072 88.77685547 -0.34057617 C89.66662582 -0.351362 90.55639618 -0.36214783 91.47312927 -0.3732605 C100.38371331 -0.32986247 108.65731466 1.42690879 115.1105957 7.85302734 C121.22472919 14.80065493 123.4546751 24.14304481 125.8125 32.875 C126.50367588 35.3620432 127.19508904 37.84902047 127.88671875 40.3359375 C128.23524902 41.60276367 128.5837793 42.86958984 128.94287109 44.17480469 C130.63385791 50.29359949 132.37898719 56.39672174 134.125 62.5 C134.62084595 64.23950928 134.62084595 64.23950928 135.12670898 66.01416016 C137.3804474 73.90140471 139.69614074 81.76791805 142.09814453 89.61132812 C143.33278451 93.66430392 144.4491632 97.71970026 145.45458984 101.83740234 C146.58329433 106.31281162 147.87046991 110.74608162 149.125 115.1875 C151.14501523 122.36503541 153.1557131 129.54488691 155.1328125 136.734375 C155.30986725 137.37800491 155.486922 138.02163483 155.66934204 138.68476868 C156.53005629 141.81503493 157.3891697 144.94573191 158.24658203 148.0769043 C159.87841122 154.01654597 161.55389387 159.93618048 163.34326172 165.83032227 C164.24046674 168.79443417 165.09104111 171.77104598 165.9375 174.75 C166.27652344 175.93980469 166.61554688 177.12960938 166.96484375 178.35546875 C167.64595708 180.75350173 168.32568298 183.15192929 169.00390625 185.55078125 C170.54202822 190.97341518 172.10853373 196.37706805 173.8125 201.75 C176.24178266 209.53518144 178.26089582 217.42941932 180.34716797 225.31201172 C182.33371248 232.73926009 184.54357437 240.01145049 187.15234375 247.2421875 C188 250 188 250 188 254 C165.89 254 143.78 254 121 254 C119.72202531 250.80506328 118.64656475 247.98612694 117.7734375 244.71875 C117.55002686 243.89052734 117.32661621 243.06230469 117.09643555 242.20898438 C116.73932495 240.86803711 116.73932495 240.86803711 116.375 239.5 C115.84829123 237.54149579 115.32091044 235.58317222 114.79296875 233.625 C114.50856934 232.56925781 114.22416992 231.51351562 113.93115234 230.42578125 C112.92314217 226.7172341 111.89584558 223.01426262 110.86328125 219.3125 C110.49884045 218.00326084 110.13441983 216.69401606 109.77001953 215.38476562 C109.0589515 212.83057539 108.34453253 210.27739768 107.62841797 207.72460938 C107.30115723 206.54705078 106.97389648 205.36949219 106.63671875 204.15625 C106.34498779 203.11275391 106.05325684 202.06925781 105.75268555 200.99414062 C105.00801082 198.03186657 104.50214696 195.01288175 104 192 C80.24 192.33 56.48 192.66 32 193 C30.02 199.6 28.04 206.2 26 213 C25.19175781 215.68253906 24.38351563 218.36507812 23.55078125 221.12890625 C22.99100586 222.98805664 22.99100586 222.98805664 22.41992188 224.88476562 C21.67096032 227.37205772 20.92093099 229.8590285 20.16992188 232.34570312 C19.80060547 233.57353516 19.43128906 234.80136719 19.05078125 236.06640625 C18.72762939 237.13834229 18.40447754 238.21027832 18.0715332 239.31469727 C16.65328377 244.19245422 15.33657282 249.09923298 14 254 C-6.46 254 -26.92 254 -48 254 C-47.17207305 249.03243832 -45.98754374 244.66203694 -44.33203125 239.95703125 C-44.06098068 239.17305466 -43.78993011 238.38907806 -43.51066589 237.5813446 C-42.9232698 235.88252685 -42.3339507 234.18437305 -41.74291992 232.48681641 C-40.13546346 227.86648629 -38.54512714 223.24029627 -36.95703125 218.61328125 C-36.62752472 217.65330231 -36.29801819 216.69332336 -35.95852661 215.70425415 C-32.52684768 205.67232987 -29.25624445 195.58994205 -26 185.5 C-21.1876662 170.60156732 -16.22190272 155.76473134 -11.12600708 140.96102905 C-5.98238413 126.00728318 -1.04622411 110.99250345 3.78955078 95.93652344 C6.6572678 87.03330974 9.61256607 78.17628997 12.76953125 69.37109375 C13.38093445 67.6500393 13.99218371 65.92893015 14.60327148 64.20776367 C15.74003284 61.00905678 16.90576666 57.82319718 18.09008789 54.6418457 C21.53271062 45.12224832 22.75042978 37.15025761 22 27 C20.824375 26.5359375 20.824375 26.5359375 19.625 26.0625 C17 25 17 25 15 24 C12.45213572 23.76811572 9.9274885 23.58133625 7.375 23.4375 C4.94125 23.293125 2.5075 23.14875 0 23 C0 15.41 0 7.82 0 0 Z " fill="#FCFDFE" transform="translate(55,68)"/>
<path d="M0 0 C10.25620285 9.25675849 14.34131399 23.32572601 15.16809082 36.72397995 C15.40719535 43.23744485 15.41935671 49.75137933 15.41069031 56.26856804 C15.40616381 59.97288239 15.42034482 63.67673121 15.43908691 67.3809967 C15.47872136 75.90048741 15.49148074 84.41994597 15.50261688 92.93951416 C15.51399618 101.40261432 15.5370313 109.8654916 15.58000183 118.32849312 C15.59353315 121.96900248 15.5894106 125.60921614 15.58459473 129.2497406 C15.59393552 131.48542659 15.60410439 133.72110932 15.61523438 135.95678711 C15.60908615 136.96109268 15.60293793 137.96539825 15.59660339 139.00013733 C15.64912539 145.01975752 16.42813047 149.52845027 19 155 C23.19298654 158.71378808 25.96331027 158.24541378 32 159 C32 165.93 32 172.86 32 180 C24.05434169 180.15862033 16.10992913 180.28683448 8.16310883 180.3626852 C4.47239517 180.39910392 0.78282756 180.44843693 -2.90722656 180.52807617 C-6.47349677 180.60455564 -10.03867021 180.64607562 -13.60569763 180.6641407 C-15.61774929 180.6832285 -17.62936401 180.7378089 -19.64074707 180.79307556 C-25.77402988 180.79568926 -30.00096259 180.71603781 -34.80273438 176.64477539 C-39.822195 171.5153751 -40.06568553 166.96266582 -40 160 C-40.76441406 160.556875 -41.52882813 161.11375 -42.31640625 161.6875 C-64.14132919 177.23545954 -84.29017025 183.8595239 -111.3125 180.1875 C-113.21509618 179.82556654 -115.11260007 179.43426901 -117 179 C-118.09441406 178.76023437 -118.09441406 178.76023437 -119.2109375 178.515625 C-127.32050279 176.14365729 -133.82975639 169.25025486 -138.375 162.375 C-144.47127469 150.92716599 -145.36209799 140.0049712 -145.4375 127.25 C-145.44765137 126.01854248 -145.45780273 124.78708496 -145.46826172 123.51831055 C-145.32840193 108.88326444 -141.2431378 94.66383601 -130.96484375 83.80078125 C-116.19504761 70.26424841 -96.17096322 64.15234867 -76.671875 61.42578125 C-73.77690387 60.96444813 -71.01813417 60.26007769 -68.1875 59.5 C-59.7347317 57.30317235 -50.75487936 55.78403523 -42 56 C-42.03095295 43.97511654 -42.03095295 43.97511654 -48 34 C-52.79552615 29.89091099 -58.32978398 30.54573724 -64.3125 30.625 C-65.91967896 30.63696411 -65.91967896 30.63696411 -67.55932617 30.64916992 C-76.35462758 30.80560418 -84.46801416 31.86944683 -93 34 C-94.01191406 34.23976562 -95.02382813 34.47953125 -96.06640625 34.7265625 C-103.16653208 36.52381271 -109.84875379 39.16706514 -116.5390625 42.12109375 C-119 43 -119 43 -123 43 C-124.39535367 39.32249352 -125.78250824 35.64200311 -127.16259766 31.95874023 C-127.86073256 30.10047642 -128.56506862 28.2445461 -129.26953125 26.38867188 C-131.67362889 19.96032383 -133.7332349 13.74880028 -135 7 C-99.44520271 -11.60854975 -35.1273026 -27.95294022 0 0 Z " fill="#FCFDFE" transform="translate(696,142)"/>
<path d="M0 0 C1.05445313 -0.00322266 2.10890625 -0.00644531 3.1953125 -0.00976562 C16.19812847 0.07874364 27.03024903 2.41574347 36.80859375 11.59765625 C41.34196575 16.58020639 45.06038427 21.54027569 47 28.0625 C47.23976563 28.84109375 47.47953125 29.6196875 47.7265625 30.421875 C49.7025864 39.23065624 49.51266634 48.12711887 49.48852539 57.10375977 C49.48824287 58.58290098 49.48840252 60.06204234 49.4889679 61.54118347 C49.48925334 65.53227123 49.48339764 69.52332858 49.47639394 73.5144093 C49.47011815 77.69441398 49.46955327 81.87441944 49.46836853 86.0544281 C49.46526763 93.95897896 49.45707105 101.86351589 49.44701904 109.76806062 C49.43581926 118.77172368 49.43033773 127.77538742 49.42532361 136.77905571 C49.41488734 155.2902133 49.39655737 173.8013518 49.375 192.3125 C29.575 192.3125 9.775 192.3125 -10.625 192.3125 C-10.67398438 182.8765625 -10.72296875 173.440625 -10.7734375 163.71875 C-10.80882446 157.73957419 -10.84470465 151.76040807 -10.8828125 145.78125 C-10.943202 136.29168915 -11.00158239 126.80214652 -11.046875 117.3125 C-11.07987276 110.40079706 -11.1197467 103.48917337 -11.16779006 96.57755804 C-11.19297787 92.91977647 -11.21478167 89.26204695 -11.22834396 85.60420227 C-11.24363353 81.51531639 -11.27427807 77.42668088 -11.30615234 73.33789062 C-11.30831253 72.13235535 -11.31047272 70.92682007 -11.31269836 69.68475342 C-11.37358145 63.56744491 -11.66626753 58.13346364 -13.625 52.3125 C-17.39908805 48.82129607 -21.51503254 48.83745219 -26.4375 48.9375 C-27.15236572 48.94765137 -27.86723145 48.95780273 -28.60375977 48.96826172 C-37.94492721 49.2434097 -44.3225356 52.62260853 -51.625 58.3125 C-52.90941231 59.21853218 -52.90941231 59.21853218 -54.21977234 60.14286804 C-57.93214221 65.03506448 -57.3278704 69.73672141 -57.28442383 75.72192383 C-57.29490753 76.98086456 -57.30539124 78.2398053 -57.31619263 79.53689575 C-57.34431151 82.98088578 -57.34187262 86.42425242 -57.33389878 89.86832261 C-57.33077157 93.47055111 -57.35581423 97.0725818 -57.37785339 100.67472839 C-57.41529256 107.49217119 -57.42744128 114.30941451 -57.4304778 121.12694997 C-57.43604623 130.34206774 -57.4807347 139.55699071 -57.52321911 148.77199841 C-57.58910138 163.28554738 -57.60276122 177.7986666 -57.625 192.3125 C-77.095 192.3125 -96.565 192.3125 -116.625 192.3125 C-116.654729 185.12690308 -116.654729 185.12690308 -116.68505859 177.79614258 C-116.75188675 161.99020843 -116.82942717 146.18434035 -116.91252708 130.37848377 C-116.96266067 120.79294749 -117.00910353 111.20741979 -117.046875 101.62182617 C-117.07980382 93.26756496 -117.11964001 84.91337021 -117.16779006 76.55918235 C-117.19304616 72.13522514 -117.2148301 67.71131197 -117.22834396 63.28730202 C-117.24117234 59.12341253 -117.26323519 54.95967416 -117.29238319 50.79586792 C-117.30145288 49.26766786 -117.30714779 47.73944346 -117.30921364 46.21121788 C-117.31254051 44.12398289 -117.32802894 42.03717523 -117.3465271 39.95002747 C-117.35205786 38.78211576 -117.35758862 37.61420404 -117.36328697 36.41090107 C-117.62752938 33.28255488 -118.20946515 31.10233255 -119.625 28.3125 C-124.0392856 24.70081178 -127.61830106 24.64732199 -133.625 23.3125 C-133.625 16.3825 -133.625 9.4525 -133.625 2.3125 C-125.56623567 2.17646061 -117.50837721 2.06659392 -109.44876957 2.00162697 C-105.70556233 1.97043179 -101.96318734 1.92818146 -98.22045898 1.85986328 C-94.60234446 1.79423981 -90.98502574 1.75870531 -87.36636162 1.74323654 C-85.99208498 1.73222622 -84.61784754 1.71072591 -83.24391365 1.67811966 C-75.41115291 1.49977695 -69.72223699 1.85039478 -63.27366638 6.53231812 C-59.51782815 10.58776271 -59.39246597 14.80206529 -59.5 20.125 C-59.51804687 21.28644531 -59.53609375 22.44789063 -59.5546875 23.64453125 C-59.57789063 24.52496094 -59.60109375 25.40539062 -59.625 26.3125 C-58.98175781 25.76722656 -58.33851563 25.22195312 -57.67578125 24.66015625 C-40.22721389 10.09894097 -23.4700625 -0.36130022 0 0 Z " fill="#FCFDFE" transform="translate(871.625,129.6875)"/>
<path d="M0 0 C1.0852597 -0.00137466 2.17051941 -0.00274933 3.28866577 -0.00416565 C4.46398865 -0.00057037 5.63931152 0.0030249 6.85025024 0.00672913 C8.72425003 0.00651009 8.72425003 0.00651009 10.6361084 0.00628662 C14.04889132 0.00686256 17.46161323 0.01186654 20.87438536 0.01886058 C24.44581642 0.02512575 28.01724837 0.02570042 31.58868408 0.02688599 C38.34585862 0.02998998 45.10301692 0.0381908 51.86018431 0.04823548 C59.55545895 0.05942556 67.25073437 0.06491436 74.94601512 0.06993091 C90.77038544 0.0803742 106.59473957 0.09795558 122.4190979 0.12025452 C122.64369071 5.73929787 122.80585437 11.3556623 122.91348267 16.97816467 C122.95839773 18.88520374 123.01955711 20.79193905 123.09805298 22.69789124 C123.55579074 34.10842605 123.59093376 42.12634853 115.6656189 50.82652283 C114.92426697 51.58345428 114.18291504 52.34038574 113.4190979 53.12025452 C112.37498946 54.51870416 111.35215529 55.93392147 110.3722229 57.37806702 C109.92685181 58.01357483 109.48148071 58.64908264 109.02261353 59.30384827 C108.35262329 60.26484436 108.35262329 60.26484436 107.6690979 61.24525452 C103.46551209 67.23794736 99.21551066 73.19376993 94.9190979 79.12025452 C90.71209841 84.92581382 86.54300792 90.75537984 82.4190979 96.62025452 C78.2951842 102.48513443 74.1257606 108.31444734 69.9190979 114.12025452 C65.57510845 120.11903509 61.25744535 126.13517683 56.9815979 132.18275452 C56.50980103 132.8485553 56.03800415 133.51435608 55.5519104 134.20033264 C52.08220767 139.11984033 48.76151939 144.10662228 45.4190979 149.12025452 C72.4790979 149.12025452 99.5390979 149.12025452 127.4190979 149.12025452 C127.4190979 162.65025452 127.4190979 176.18025452 127.4190979 190.12025452 C77.9190979 190.12025452 28.4190979 190.12025452 -22.5809021 190.12025452 C-22.5809021 144.61892841 -22.5809021 144.61892841 -11.37680054 133.02796936 C-8.42756223 129.89510528 -5.98461049 126.40602092 -3.4559021 122.93275452 C-2.46415545 121.62283935 -1.47068231 120.31422942 -0.47543335 119.00697327 C2.89837163 114.52245986 6.05360401 109.89872952 9.2069397 105.25794983 C13.20184918 99.39352249 17.34376237 93.64359921 21.51260376 87.9019928 C25.1882588 82.83568145 28.82002084 77.74121682 32.4190979 72.62025452 C37.23804055 65.76385874 42.12595707 58.95984071 47.05581665 52.18275452 C47.56757446 51.47763733 48.07933228 50.77252014 48.6065979 50.04603577 C49.05390259 49.43155579 49.50120728 48.81707581 49.96206665 48.18397522 C51.83491331 45.53129881 53.62628495 42.82746926 55.4190979 40.12025452 C49.28100754 40.07065841 43.14303497 40.03444203 37.00479126 40.01039124 C34.91850756 40.00036025 32.83223782 39.98673225 30.7460022 39.96937561 C27.73986352 39.94499958 24.73391145 39.93374216 21.72769165 39.92494202 C20.80137436 39.91461945 19.87505707 39.90429688 18.92066956 39.8936615 C13.70782674 39.89276705 9.29606741 40.19726892 4.4190979 42.12025452 C1.54978086 45.91597858 1.54978086 45.91597858 1.4190979 55.12025452 C-6.1709021 55.12025452 -13.7609021 55.12025452 -21.5809021 55.12025452 C-21.6729713 49.26618793 -21.75253686 43.41465508 -21.80062866 37.56044006 C-21.82068547 35.57109544 -21.84793795 33.58180933 -21.88265991 31.59266663 C-21.93143981 28.72541321 -21.95393037 25.85894241 -21.9715271 22.99134827 C-21.99217224 22.10877853 -22.01281738 21.2262088 -22.03408813 20.31689453 C-22.03649594 13.61969662 -20.51145199 9.54178659 -16.0887146 4.37806702 C-11.05295346 0.25272597 -6.31215486 -0.00620055 0 0 Z " fill="#FBFCFD" transform="translate(969.5809020996094,131.87974548339844)"/>
<path d="M0 0 C8.04148775 -0.11344229 16.08234235 -0.20496683 24.12441826 -0.25906086 C27.85961769 -0.28503731 31.59423631 -0.32021169 35.32910156 -0.37719727 C38.94071191 -0.4319507 42.55176743 -0.46151017 46.16376114 -0.47438622 C47.53438158 -0.48354931 48.90497531 -0.50144105 50.27535629 -0.52865028 C58.87547909 -0.69245074 65.85196402 -0.14711111 73 5 C76.56566138 8.79360099 78.1257434 12.94989609 78.12304783 18.11731243 C78.12503888 18.95930052 78.12702993 19.8012886 78.12908131 20.66879147 C78.12616847 21.59388054 78.12325563 22.51896961 78.12025452 23.47209167 C78.12110894 24.45470752 78.12196337 25.43732336 78.12284368 26.44971544 C78.1244967 29.75710397 78.11897998 33.06444228 78.11352539 36.37182617 C78.11324345 38.73677062 78.11340138 41.10171515 78.1139679 43.46665955 C78.11422571 49.23146099 78.10988106 54.99624586 78.10353024 60.76104351 C78.09638804 67.46802617 78.09488562 74.17500645 78.09374207 80.88199238 C78.09155266 92.84312538 78.08489558 104.80425156 78.07543945 116.76538086 C78.06626246 128.3854977 78.05918303 140.00561269 78.05493164 151.62573242 C78.05466892 152.34182319 78.05440619 153.05791396 78.05413551 153.79570445 C78.05283049 157.38806963 78.05156677 160.98043483 78.05032361 164.57280004 C78.03995446 194.3818725 78.02151801 224.19093288 78 254 C58.2 254 38.4 254 18 254 C17.9906543 247.24055908 17.98130859 240.48111816 17.97167969 233.5168457 C17.9389773 211.89334437 17.88669527 190.26992706 17.82207905 168.6464981 C17.8120615 165.28817691 17.80221738 161.92985522 17.79248047 158.5715332 C17.7905391 157.90294705 17.78859772 157.23436089 17.78659752 156.54551455 C17.7555698 145.71746552 17.73859473 134.8894377 17.72680578 124.06135259 C17.71439819 112.95211954 17.68660797 101.84298943 17.64538693 90.73382443 C17.62272009 84.49335723 17.60709245 78.25304903 17.60811615 72.012537 C17.60885967 66.14136417 17.59103279 60.2705435 17.55883217 54.39946175 C17.55029853 52.24236404 17.54860658 50.085227 17.55419731 47.92811966 C17.56080652 44.98672455 17.54299018 42.04646005 17.51898193 39.10517883 C17.52674235 38.24817062 17.53450277 37.39116241 17.54249835 36.50818425 C17.48404712 32.47325132 17.30549954 30.48153998 15.09256363 26.99342632 C10.16712778 22.30133795 8.63028894 23.78457172 0 23 C0 15.41 0 7.82 0 0 Z " fill="#FCFDFD" transform="translate(343,68)"/>
<path d="M0 0 C8.04148775 -0.11344229 16.08234235 -0.20496683 24.12441826 -0.25906086 C27.85961769 -0.28503731 31.59423631 -0.32021169 35.32910156 -0.37719727 C38.94071191 -0.4319507 42.55176743 -0.46151017 46.16376114 -0.47438622 C47.53438158 -0.48354931 48.90497531 -0.50144105 50.27535629 -0.52865028 C58.88546148 -0.69264087 65.83717163 -0.13497982 73 5 C76.80811722 9.55116448 78.12610492 13.39180759 78.12304783 19.22474289 C78.12503888 20.06523863 78.12702993 20.90573436 78.12908131 21.77169967 C78.12616847 22.68998494 78.12325563 23.60827022 78.12025452 24.55438232 C78.12110894 25.53376904 78.12196337 26.51315575 78.12284368 27.52222085 C78.12449428 30.81268391 78.11898393 34.1030963 78.11352539 37.39355469 C78.1132434 39.74879454 78.11340148 42.10403449 78.1139679 44.45927429 C78.11425542 50.86173347 78.10836597 57.264174 78.10139394 63.66662884 C78.09530879 69.67716139 78.09477134 75.68769616 78.09374207 81.69823125 C78.09155339 93.6033491 78.08489828 105.50846009 78.07543945 117.41357422 C78.06626058 128.97835252 78.05918207 140.54312895 78.05493164 152.10791016 C78.05466892 152.82075121 78.05440619 153.53359225 78.05413551 154.26803455 C78.05283047 157.84414503 78.05156676 161.42025552 78.05032361 164.99636602 C78.03995672 194.6642494 78.0215215 224.33212217 78 254 C58.2 254 38.4 254 18 254 C17.99589111 247.24055908 17.99178223 240.48111816 17.98754883 233.5168457 C17.97089376 211.89333897 17.92973661 190.26993633 17.87314438 168.6464981 C17.86437755 165.28817694 17.85582775 161.92985526 17.84741211 158.5715332 C17.84573305 157.90294705 17.84405398 157.23436089 17.84232404 156.54551455 C17.81564853 145.71745274 17.80655857 134.88944388 17.80395857 124.06135259 C17.80089996 112.95210797 17.7785914 101.84300295 17.73947543 90.73382443 C17.71811384 84.4933213 17.70556117 78.25307705 17.71384621 72.012537 C17.72136615 66.14130466 17.70564679 60.27059773 17.67193985 54.39946175 C17.66368181 52.24236347 17.66398559 50.08521319 17.67340279 47.92811966 C17.68497561 44.98651559 17.66598105 42.04664755 17.63923645 39.10517883 C17.64990971 38.24817062 17.66058297 37.39116241 17.67157966 36.50818425 C17.59744633 32.14890183 17.41030851 30.51082697 14.58504772 26.99342632 C9.17635605 22.82258326 8.66519955 23.86651995 0 23 C0 15.41 0 7.82 0 0 Z " fill="#FBFCFD" transform="translate(242,68)"/>
<path d="M0 0 C7.43489138 -0.06302734 14.86880712 -0.12311799 22.30373383 -0.15525055 C25.76648976 -0.17104861 29.22902298 -0.19213655 32.69165039 -0.22631836 C36.67070772 -0.26534939 40.64967622 -0.27974632 44.62890625 -0.29296875 C45.86145645 -0.30845261 47.09400665 -0.32393646 48.36390686 -0.33988953 C56.25834401 -0.34143072 61.06330558 0.49483082 67.75 4.75 C72.38764956 9.38764956 73.33955866 14.42752227 73.38724393 20.74017376 C73.3785054 21.58746534 73.36976688 22.43475692 73.36076355 23.307724 C73.36332682 24.22433715 73.3658901 25.1409503 73.36853105 26.08533961 C73.37345809 29.14553438 73.35699368 32.20523181 73.34057617 35.26538086 C73.33972967 37.46342965 73.3402055 39.66147929 73.34190369 41.85952759 C73.34276415 47.81974124 73.32512994 53.77977363 73.30418181 59.73994517 C73.28542363 65.97127917 73.28366524 72.20261735 73.28010559 78.43397522 C73.27184176 88.89066646 73.25310518 99.3472957 73.22631836 109.80395508 C73.19876216 120.57218088 73.17753623 131.34038862 73.16479492 142.10864258 C73.16400675 142.77290353 73.16321858 143.43716448 73.16240653 144.12155455 C73.15849128 147.45410788 73.15470696 150.78666135 73.15097082 154.11921489 C73.11961608 181.74620017 73.06460076 209.37307108 73 237 C54.52 237 36.04 237 17 237 C16.9906543 230.8213623 16.98130859 224.64272461 16.97167969 218.27685547 C16.93795559 197.892786 16.88263412 177.50881778 16.81609726 157.12483025 C16.77627469 144.7625799 16.74389852 132.40039352 16.72900391 120.03808594 C16.71600411 109.26407966 16.68908214 98.49021392 16.64538693 87.71628678 C16.62273462 82.01066449 16.60709159 76.30521577 16.60811615 70.59954453 C16.60886053 65.22984914 16.59099902 59.860538 16.55883217 54.490942 C16.55030936 52.51970992 16.54859933 50.54843486 16.55419731 48.57719231 C16.56082286 45.88571771 16.54295152 43.19547084 16.51898193 40.50411987 C16.52674235 39.72395252 16.53450277 38.94378517 16.54249835 38.13997638 C16.48711425 34.62734139 15.93620102 31.82742292 14.71756363 28.53099251 C11.14816755 24.68359395 11.14816755 24.68359395 0 25 C0 16.75 0 8.5 0 0 Z " fill="#FDFDFE" transform="translate(1334,79)"/>
<path d="M0 0 C8.3368012 -0.13592611 16.67273121 -0.24584193 25.01034546 -0.31087303 C28.8824808 -0.34209572 32.75381434 -0.38439804 36.62548828 -0.45263672 C40.36678871 -0.51815971 44.10732139 -0.55377411 47.84915161 -0.56926346 C49.27169878 -0.58029148 50.69420715 -0.60182721 52.11642456 -0.63438034 C59.53170709 -0.79725237 65.47405324 -0.91064125 71.38671875 3.92684937 C78.04576784 12.48407511 77.54836508 20.72243467 77.45410156 31.06445312 C77.4529722 32.79960097 77.45360868 34.53475072 77.45587158 36.26989746 C77.45701618 40.96365781 77.43354805 45.65700677 77.40557575 50.35067177 C77.38051973 55.26203941 77.37821679 60.17341717 77.37347412 65.08483887 C77.36105669 74.37781292 77.32825174 83.67059807 77.28807616 92.96348906 C77.2433201 103.54627603 77.22136177 114.12907217 77.20129442 124.71193027 C77.15951799 146.47474894 77.086181 168.23730875 77 190 C57.2 190 37.4 190 17 190 C16.9906543 185.14901611 16.98130859 180.29803223 16.97167969 175.30004883 C16.93795275 159.29451511 16.88262965 143.28911031 16.81609726 127.28368092 C16.77627789 117.57705722 16.74390014 107.87051494 16.72900391 98.16381836 C16.71600239 89.7040351 16.6890762 81.24443076 16.64538693 72.78474826 C16.62273827 68.30484392 16.60709135 63.82516054 16.60811615 59.34519386 C16.60886076 55.12864765 16.59099055 50.91259051 16.55883217 46.69617081 C16.55031219 45.14862612 16.54859747 43.60102671 16.55419731 42.0534687 C16.56082772 39.93955834 16.54294327 37.82720842 16.51898193 35.7134552 C16.51529476 34.5307948 16.51160759 33.3481344 16.50780869 32.12963581 C15.89332178 28.34253984 14.69365064 26.68853088 12 24 C8.99623028 22.76888166 8.99623028 22.76888166 5.75 22.1875 C3.8525 21.795625 1.955 21.40375 0 21 C0 14.07 0 7.14 0 0 Z " fill="#FBFCFD" transform="translate(447,132)"/>
<path d="M0 0 C0 62.7 0 125.4 0 190 C-18.48 190 -36.96 190 -56 190 C-56.06776189 167.46865147 -56.12300797 144.93738564 -56.15543652 122.40596104 C-56.17089492 111.943862 -56.19196484 101.48183085 -56.22631836 91.01977539 C-56.25625211 81.89936001 -56.27558247 72.7789938 -56.28226548 63.65853065 C-56.28617099 58.83084553 -56.29532815 54.00330106 -56.31719017 49.17566109 C-56.33761812 44.62766199 -56.34382107 40.07986092 -56.33932304 35.5318203 C-56.34014543 33.86659289 -56.3460734 32.20135856 -56.35761642 30.53617096 C-56.48330913 11.46122191 -56.48330913 11.46122191 -51.31640625 4.84375 C-50.73761719 4.4003125 -50.15882812 3.956875 -49.5625 3.5 C-48.98628906 3.0359375 -48.41007812 2.571875 -47.81640625 2.09375 C-34.14888442 -6.13615562 -15.9540747 0 0 0 Z " fill="#FCFDFE" transform="translate(1326,127)"/>
<path d="M0 0 C44.46153846 0 44.46153846 0 50.875 5.4375 C54.74720583 10.10692468 55.24915877 13.09391161 55.24050903 19.20062256 C55.24221788 19.92682903 55.24392673 20.65303549 55.24568737 21.40124822 C55.248982 23.83498196 55.23797911 26.26844009 55.22705078 28.70214844 C55.22648666 30.44655857 55.22680324 32.19096917 55.22793579 33.93537903 C55.22851027 38.67263589 55.21674048 43.40979174 55.20278788 48.14702511 C55.19029646 53.09713671 55.18911127 58.04725056 55.18673706 62.99737549 C55.18051762 72.37187119 55.16410051 81.74632031 55.14403808 91.12079549 C55.12169353 101.79298823 55.11068928 112.46518317 55.10064721 123.13739347 C55.0797347 145.09162743 55.04305265 167.04579753 55 189 C36.85 189 18.7 189 0 189 C0 126.63 0 64.26 0 0 Z " fill="#FEFEFE" transform="translate(1432,127)"/>
<path d="M0 0 C5.7898811 4.58276567 8.86779469 10.0418467 9.8046875 17.3515625 C10.08448431 24.2328153 9.03125737 29.5477474 5.4296875 35.42578125 C5.04039062 36.06386719 4.65109375 36.70195313 4.25 37.359375 C-0.53868428 43.94735781 -8.12741075 45.944814 -15.5703125 48.42578125 C-28.28031264 49.54953126 -40.63507653 49.48864678 -50.9453125 41.17578125 C-52.18864583 39.96058921 -53.39925304 38.71076731 -54.5703125 37.42578125 C-55.36308594 36.56533203 -55.36308594 36.56533203 -56.171875 35.6875 C-60.82721427 29.61475297 -60.43551983 22.75120335 -59.5703125 15.42578125 C-57.88218436 7.69813878 -54.13379222 2.76298402 -47.5703125 -1.57421875 C-32.76476366 -9.54830745 -14.36774312 -8.79969677 0 0 Z " fill="#FAFBFD" transform="translate(515.5703125,70.57421875)"/>
<path d="M0 0 C2 1 2 1 3.04980469 4.14501953 C3.4321631 5.55538392 3.8054913 6.96821409 4.171875 8.3828125 C4.37496277 9.14107834 4.57805054 9.89934418 4.78729248 10.68058777 C5.44928645 13.16006841 6.09975454 15.64241493 6.75 18.125 C7.20051628 19.8220329 7.65168963 21.51889151 8.10351562 23.21557617 C9.21228406 27.38748239 10.31159049 31.56180136 11.40649414 35.73736572 C11.94337259 37.78411821 12.48192373 39.8304181 13.02148438 41.87646484 C17.19934497 57.72922548 17.19934497 57.72922548 19.0625 65.32421875 C19.77451777 68.11592176 20.54081199 70.78925129 21.5 73.5 C23.5038861 79.39976618 25 84.69502611 25 91 C7.84 91 -9.32 91 -27 91 C-25.87651708 82.01213668 -25.87651708 82.01213668 -24.58203125 78.36328125 C-24.30045166 77.55028564 -24.01887207 76.73729004 -23.72875977 75.8996582 C-23.42639404 75.045896 -23.12402832 74.19213379 -22.8125 73.3125 C-20.36455302 66.19308031 -18.08537658 59.0642822 -16.0625 51.8125 C-11.18876113 34.40038133 -5.8703268 17.10297134 0 0 Z " fill="#05569B" transform="translate(124,128)"/>
<path d="M0 0 C0.24862926 5.12252775 0.42927623 10.24149618 0.54931641 15.36865234 C0.59937808 17.10918377 0.66745696 18.84929936 0.75439453 20.58837891 C1.45494355 34.97023819 1.45494355 34.97023819 -2.04418945 39.85180664 C-4.59965531 41.94233606 -7.06340817 43.50204154 -10 45 C-10.62680664 45.37366699 -11.25361328 45.74733398 -11.89941406 46.13232422 C-13.36700458 46.98370624 -14.90126371 47.71732549 -16.4375 48.4375 C-17.42621094 48.91058594 -18.41492188 49.38367188 -19.43359375 49.87109375 C-26.07001374 52.79031046 -32.88936279 52.81175222 -40 52 C-43.76107233 49.9709051 -44.69828549 46.71836788 -46.3125 42.875 C-47.91232288 33.85781648 -47.82130454 24.46735107 -44 16 C-37.69351188 7.29630879 -24.9288287 4.83039394 -15.125 2.1875 C-14.31643555 1.96827881 -13.50787109 1.74905762 -12.67480469 1.52319336 C-11.89782227 1.32346924 -11.12083984 1.12374512 -10.3203125 0.91796875 C-9.63211426 0.74031982 -8.94391602 0.5626709 -8.23486328 0.37963867 C-5.46702293 -0.0905374 -2.80186425 -0.05888375 0 0 Z " fill="#04569A" transform="translate(654,231)"/>
<path d="M0 0 C0.66 0.33 1.32 0.66 2 1 C-1.63 4.63 -5.26 8.26 -9 12 C-9.66 11.67 -10.32 11.34 -11 11 C-7.6189962 6.86378916 -4.33409466 3.18683431 0 0 Z " fill="#D9E5EF" transform="translate(572,220)"/>
</svg>
