<?xml version="1.0" encoding="UTF-8"?>
<svg version="1.1" xmlns="http://www.w3.org/2000/svg" width="509" height="516">
<path d="M0 0 C3.44441841 0.00314603 6.88796328 -0.02033028 10.33227539 -0.0456543 C29.10466881 -0.1001688 47.6025547 1.36474451 65.84985352 6.00317383 C66.8758667 6.25881104 67.90187988 6.51444824 68.95898438 6.77783203 C107.94444241 16.7706666 143.34545808 34.46654598 173.41235352 61.31567383 C174.21600342 62.02675293 174.21600342 62.02675293 175.03588867 62.75219727 C214.4170089 97.72908068 240.13780584 144.85035691 251.78735352 196.00317383 C252.01382568 196.98487549 252.24029785 197.96657715 252.47363281 198.97802734 C256.63081685 218.41102708 257.94072246 237.92484387 257.78735352 257.75317383 C257.78087296 259.35452179 257.78087296 259.35452179 257.77426147 260.98822021 C257.70029615 276.60321918 257.31564202 291.92966099 254.41235352 307.31567383 C254.24074707 308.25797852 254.06914062 309.2002832 253.89233398 310.17114258 C245.2787798 356.29483935 225.46163515 400.41332705 193.47485352 435.06567383 C191.66178257 437.0435694 189.94196338 439.067642 188.22485352 441.12817383 C152.43519236 481.91364581 98.9391601 505.48239119 46.41235352 514.31567383 C44.66257202 514.61042603 44.66257202 514.61042603 42.87744141 514.91113281 C31.36185839 516.60064591 19.87478631 516.65392926 8.25195312 516.63134766 C4.87995597 516.62820191 1.50885146 516.65167898 -1.86303711 516.67700195 C-20.50933789 516.73227814 -38.90182295 515.23350509 -57.02514648 510.62817383 C-58.04825928 510.37398682 -59.07137207 510.1197998 -60.12548828 509.85791016 C-112.22064611 496.53198394 -161.69971142 467.59239705 -194.58764648 424.31567383 C-195.00433594 423.77539551 -195.42102539 423.23511719 -195.8503418 422.6784668 C-203.53534316 412.68123855 -210.2467719 402.2082654 -216.58764648 391.31567383 C-216.94955078 390.70320801 -217.31145508 390.09074219 -217.68432617 389.4597168 C-252.98753286 329.20778461 -258.12361021 251.04646302 -240.83813477 184.42700195 C-231.63375256 150.38292164 -215.76855681 118.72172839 -193.58764648 91.31567383 C-192.77166992 90.29473633 -191.95569336 89.27379883 -191.11499023 88.22192383 C-180.37512481 75.01878652 -168.19230855 62.56680575 -154.58764648 52.31567383 C-154.03431641 51.89125 -153.48098633 51.46682617 -152.91088867 51.02954102 C-143.85401875 44.09560533 -134.54407413 37.87969395 -124.58764648 32.31567383 C-123.80647461 31.87723145 -123.02530273 31.43878906 -122.22045898 30.98706055 C-99.58463857 18.40425929 -75.64840785 9.93607895 -50.33764648 4.56567383 C-49.40460693 4.3669165 -48.47156738 4.16815918 -47.51025391 3.96337891 C-31.60057118 0.74223078 -16.19775456 -0.03081808 0 0 Z M-147.15844727 113.73413086 C-151.62466791 118.67642285 -155.6617458 123.93937501 -159.58764648 129.31567383 C-160.00224121 129.88060547 -160.41683594 130.44553711 -160.84399414 131.02758789 C-182.52542012 160.9845641 -195.49131183 197.52156724 -198.58764648 234.31567383 C-198.6972168 235.52610352 -198.80678711 236.7365332 -198.91967773 237.98364258 C-203.4884071 295.79329809 -188.1330636 353.55623551 -150.58764648 398.31567383 C-119.54050042 434.40501664 -77.4555343 456.72216518 -30.58764648 464.31567383 C-29.90476563 464.43281738 -29.22188477 464.54996094 -28.51831055 464.6706543 C22.77261869 473.16027441 79.8192223 461.17839256 122.41235352 431.31567383 C132.0640236 424.37563891 140.82271826 416.51325104 149.41235352 408.31567383 C150.0659082 407.7149707 150.71946289 407.11426758 151.39282227 406.49536133 C183.76865154 375.88828282 201.50932923 328.67370232 206.41235352 285.31567383 C206.50661621 284.49333252 206.60087891 283.67099121 206.69799805 282.82373047 C212.5328443 226.28626229 198.44782497 168.10809624 162.90844727 123.30004883 C158.58506746 118.13093745 154.06058359 113.19294712 149.41235352 108.31567383 C148.64665039 107.48551758 147.88094727 106.65536133 147.09204102 105.80004883 C121.76349196 79.18360744 86.1012483 62.40248986 50.66235352 54.50317383 C49.7891748 54.30812256 48.91599609 54.11307129 48.01635742 53.91210938 C33.51103216 50.88359838 19.06599482 49.93293588 4.28735352 50.00317383 C3.08261887 50.00590805 3.08261887 50.00590805 1.85354614 50.00869751 C-54.77633426 50.22398825 -108.26322273 72.20462088 -147.15844727 113.73413086 Z " fill="#00519B" transform="translate(251.587646484375,-0.315673828125)"/>
<path d="M0 0 C1.17915482 -0.00637985 2.35830963 -0.0127597 3.57319641 -0.01933289 C5.4979908 -0.02100212 5.4979908 -0.02100212 7.46166992 -0.02270508 C8.79530371 -0.02592088 10.12893714 -0.02928519 11.46257019 -0.03279114 C14.26786106 -0.03878985 17.07312113 -0.04063072 19.87841797 -0.04003906 C23.43746853 -0.0399384 26.99631522 -0.05348601 30.55531788 -0.07081127 C33.31722376 -0.08205816 36.07908273 -0.08395429 38.84100914 -0.08342934 C40.77991091 -0.08515457 42.71879801 -0.09593055 44.65766907 -0.10697937 C67.06001969 -0.05019727 67.06001969 -0.05019727 75.37963867 6.14526367 C83.29455847 14.27410022 82.52941349 25.85701963 82.50662231 36.46470642 C82.5089623 38.14611586 82.5089623 38.14611586 82.51134956 39.86149317 C82.51532939 43.60705711 82.51218165 47.35258031 82.5090332 51.09814453 C82.51038853 53.7873242 82.51213307 56.47650109 82.51434326 59.16567993 C82.51878233 65.70350161 82.51783307 72.24131179 82.51493062 78.77913391 C82.51267062 84.08976722 82.51236665 89.40039731 82.51345444 94.71103096 C82.51360767 95.46733194 82.5137609 96.22363291 82.51391878 97.0028521 C82.5142385 98.5392551 82.51456272 100.0756581 82.51489137 101.61206109 C82.51774035 116.00523696 82.51446755 130.39840646 82.509091 144.79158128 C82.50461714 157.15142195 82.50540481 169.51125324 82.51000977 181.87109375 C82.51535487 196.22424444 82.5174724 210.57738955 82.5143975 224.9305411 C82.51407895 226.45909631 82.51376458 227.98765153 82.51345444 229.51620674 C82.51322302 230.64435898 82.51322302 230.64435898 82.51298694 231.79530216 C82.51212206 237.10539239 82.51358389 242.41547909 82.51593399 247.72556877 C82.51873119 254.18779066 82.51799517 260.65000039 82.51265325 267.11222088 C82.51001612 270.41156752 82.50954525 273.71088955 82.5123024 277.01023674 C82.51501061 280.57841395 82.51163693 284.14653298 82.50662231 287.71470642 C82.5099684 289.29549505 82.5099684 289.29549505 82.51338208 290.9082188 C82.50947046 292.33025548 82.50947046 292.33025548 82.50547981 293.78102016 C82.50531746 294.60561306 82.50515511 295.43020596 82.50498784 296.27978653 C82.37963867 298.14526367 82.37963867 298.14526367 81.37963867 299.14526367 C79.23220319 299.23951962 77.08162841 299.26269015 74.93212891 299.25878906 C73.92241531 299.2590081 73.92241531 299.2590081 72.89230347 299.25923157 C70.65758083 299.25853246 68.42294058 299.25074019 66.18823242 299.24291992 C64.64266505 299.24105573 63.0970971 299.23963184 61.55152893 299.2386322 C57.47606791 299.23480707 53.4006423 299.22497684 49.32519531 299.21392822 C45.16951985 299.20371399 41.01383868 299.19913456 36.8581543 299.1940918 C28.6986328 299.18335456 20.53914014 299.16627821 12.37963867 299.14526367 C12.37632853 297.83236075 12.37301838 296.51945784 12.36960793 295.16676998 C12.29058551 263.99916191 12.20136378 232.83160142 12.09958706 201.66405978 C12.08706823 197.82763515 12.07463545 193.99121024 12.06225586 190.15478516 C12.05855687 189.00914334 12.05855687 189.00914334 12.05478315 187.84035725 C12.01506251 175.474633 11.98231209 163.10889961 11.95213886 150.7431488 C11.92102174 138.05417831 11.88241122 125.36524658 11.83684862 112.67631966 C11.80897151 104.84696445 11.7869351 97.01763757 11.77237616 89.18824608 C11.76058503 83.18405037 11.73836684 77.17993937 11.71225548 71.17578697 C11.70317893 68.71313747 11.69748929 66.25047283 11.69542503 63.78780746 C11.69210313 60.4270297 11.67662708 57.06651872 11.65811157 53.70579529 C11.66004631 52.73010241 11.66198104 51.75440954 11.6639744 50.74915022 C11.61569274 44.89179296 11.41246633 39.33221284 8.16870117 34.24682617 C5.43814292 32.56556541 2.92654936 32.65389184 -0.24536133 32.52026367 C-6.53702799 32.22859701 -6.53702799 32.22859701 -7.62036133 31.14526367 C-7.70819675 28.92671103 -7.72730742 26.70537871 -7.71801758 24.48510742 C-7.71660263 23.82064102 -7.71518768 23.15617462 -7.71372986 22.47157288 C-7.70811651 20.34192468 -7.69556187 18.21238028 -7.68286133 16.08276367 C-7.67784804 14.64200998 -7.67328484 13.20125464 -7.66918945 11.76049805 C-7.65814278 8.22205265 -7.64086925 4.68366828 -7.62036133 1.14526367 C-4.97144521 -0.17919438 -2.9665251 0.01087281 0 0 Z " fill="#00529A" transform="translate(208.620361328125,95.854736328125)"/>
<path d="M0 0 C55.19770774 0 55.19770774 0 62.58203125 6.36328125 C72.1663574 16.13416362 70.41880026 30.87839359 70.35644531 43.51025391 C70.35723715 45.57919399 70.35933734 47.64813393 70.36264038 49.71707153 C70.36775168 55.30728989 70.35428796 60.89732258 70.33711338 66.48751116 C70.32203469 72.34065822 70.32325054 78.19380332 70.32244873 84.04696655 C70.31876325 93.86353716 70.30382601 103.68003753 70.28125 113.49658203 C70.25229459 126.11306443 70.24201821 138.72949056 70.2375679 151.34600258 C70.23359572 162.1867503 70.22109947 173.0274857 70.20722103 183.86822462 C70.20311673 187.35859747 70.20019401 190.84896988 70.19742584 194.33934402 C70.19254798 199.80751863 70.1823704 205.27565876 70.16798782 210.74381638 C70.16345057 212.75587401 70.16062281 214.7679363 70.15958023 216.77999878 C70.15784506 219.51381885 70.14999055 222.24755149 70.14044189 224.98135376 C70.14130838 225.78803674 70.14217486 226.59471973 70.1430676 227.42584765 C70.11420858 232.88579142 70.11420858 232.88579142 69 234 C46.23 234 23.46 234 0 234 C0 156.78 0 79.56 0 0 Z " fill="#00519B" transform="translate(323,161)"/>
<path d="M0 0 C0 77.22 0 154.44 0 234 C-22.77 234 -45.54 234 -69 234 C-70.77191031 232.22808969 -70.12777906 229.8648985 -70.1384055 227.50436699 C-70.1368569 226.70935686 -70.1353083 225.91434672 -70.13371277 225.09524536 C-70.13597833 224.25685682 -70.13824388 223.41846828 -70.14057809 222.55467403 C-70.14694849 219.72279634 -70.14608676 216.89096613 -70.14526367 214.05908203 C-70.14825347 212.03739866 -70.15165558 210.01571585 -70.15544128 207.99403381 C-70.16430862 202.48319657 -70.16662068 196.97237484 -70.16725707 191.46153116 C-70.16820482 186.86217359 -70.17188198 182.26281965 -70.17542917 177.66346347 C-70.18358581 166.80526285 -70.18601248 155.94707052 -70.18530273 145.08886719 C-70.18470316 133.89587134 -70.19522823 122.70292388 -70.2110464 111.50994027 C-70.22414066 101.90133282 -70.22948576 92.29274113 -70.22884732 82.68412483 C-70.22859268 76.94540643 -70.23142459 71.2067309 -70.24202538 65.46802139 C-70.25173682 60.06231739 -70.25176465 54.65669694 -70.24450874 49.25098991 C-70.24346635 47.27216278 -70.24580521 45.29333037 -70.2518692 43.31451225 C-70.33022361 15.96151615 -70.33022361 15.96151615 -63 7 C-48.8423287 -6.79465408 -12.39298322 0 0 0 Z " fill="#00529A" transform="translate(193,161)"/>
</svg>
